IKResults
version=1
nRows=13
nColumns=44
inDegrees=yes

Units are S.I. units (second, meters, Newtons, ...)
Angles are in degrees.

endheader
time	ground_spine_rot_x	ground_spine_rot_y	ground_spine_rot_z	ground_spine_tx	ground_spine_ty	ground_spine_tz	clav_prot	clav_elev	scapula_abduction	scapula_elevation	scapula_upward_rot	scapula_winging	plane_elv	shoulder_elv	axial_rot	elbow_flexion	pro_sup	clav_prot_l	clav_elev_l	pitch2	roll2	yaw2	aux7jnt_r3	aux7jnt_r1	aux7jnt_r2	aux6jnt_r3	aux6jnt_r1	aux6jnt_r2	aux5jnt_r3	aux5jnt_r1	aux5jnt_r2	aux4jnt_r3	aux4jnt_r1	aux4jnt_r2	aux3jnt_r3	aux3jnt_r1	aux3jnt_r2	pitch1	roll1	yaw1	aux1jnt_r3	aux1jnt_r1	aux1jnt_r2
     13.27000000	      4.32896452	      3.26775791	     -3.46130171	     -0.83734965	      1.09374167	      0.89025391	    -25.89732598	      1.29863975	      1.35610430	    -13.76913006	     11.99853636	     19.34157055	    -63.91306691	     35.94809853	     51.03400964	      0.00000000	     34.32000000	     30.42326055	     -1.16071730	     -0.03365419	     -0.23468764	      0.40890254	     -0.36058180	     -1.84218417	      4.40453676	     -0.42421284	     -2.11111948	      5.13081376	     -0.42421284	     -2.90446594	      5.13081376	     -0.31815963	     -2.90446594	      5.13081376	     -0.21210642	     -2.63553833	      2.20226838	      0.02560611	     -0.03410278	      0.60221481	      0.81571959	     -0.97697269	      3.82999207
     13.28000000	      4.31614471	      3.30558368	     -3.46178919	     -0.83735182	      1.09374829	      0.89021465	    -25.92247509	      1.33690122	      1.29642890	    -13.73497237	     11.99817725	     19.35321069	    -63.93551613	     35.86419200	     54.00402752	      0.00000000	     34.32000000	     30.42326055	     -1.16071730	     -0.03499354	     -0.23285571	      0.40924477	     -0.37493197	     -1.82780440	      4.40822314	     -0.44109536	     -2.09464045	      5.13510800	     -0.44109536	     -2.88179419	      5.13510800	     -0.33082152	     -2.88179419	      5.13510800	     -0.22054768	     -2.61496578	      2.20411157	      0.02431312	     -0.03585140	      0.60246271	      0.77452949	     -1.02706705	      3.83156867
     13.29000000	      4.29048791	      3.31195550	     -3.46946386	     -0.83737453	      1.09376219	      0.89034813	    -25.89699513	      1.32365185	      1.34734677	    -13.74554071	     11.99880704	     19.33639043	    -63.96886407	     35.87090322	     51.92180597	      0.00000000	     34.32000000	     30.42326055	     -1.16071730	     -0.03602410	     -0.23372985	      0.41013319	     -0.38597378	     -1.83466596	      4.41779285	     -0.45408569	     -2.10250371	      5.14625569	     -0.45408569	     -2.89261241	      5.14625569	     -0.34056427	     -2.89261241	      5.14625569	     -0.22704284	     -2.62478233	      2.20889643	      0.02465992	     -0.03389700	      0.60273315	      0.78557728	     -0.97107746	      3.83328864
     13.30000000	      4.33273416	      3.35572436	     -3.48179077	     -0.83744148	      1.09376418	      0.88996226	    -25.98729960	      1.44515330	      1.14031564	    -13.63828223	     11.99871072	     19.38105157	    -63.61440626	     35.60361432	     49.93946196	      0.00000000	     34.32000000	     30.42326055	     -1.16071730	     -0.03711730	     -0.23753621	      0.41003229	     -0.39768662	     -1.86454404	      4.41670600	     -0.46786546	     -2.13674361	      5.14498962	     -0.46786546	     -2.93971947	      5.14498962	     -0.35089910	     -2.93971947	      5.14498962	     -0.23393273	     -2.66752770	      2.20835300	      0.02562059	     -0.03033464	      0.60346443	      0.81618087	     -0.86902356	      3.83793945
     13.31000000	      4.31772453	      3.37054238	     -3.46188964	     -0.83732579	      1.09378650	      0.88996885	    -25.99382838	      1.41843495	      1.13859555	    -13.66398774	     11.99840491	     19.39114424	    -63.59596154	     35.69762642	     48.89275842	      0.00000000	     34.32000000	     30.42326055	     -1.16071730	     -0.04117330	     -0.23756677	      0.40982366	     -0.44114392	     -1.86478387	      4.41445873	     -0.51899157	     -2.13701845	      5.14237179	     -0.51899157	     -2.94009760	      5.14237179	     -0.38924368	     -2.94009760	      5.14237179	     -0.25949579	     -2.66787082	      2.20722936	      0.02871109	     -0.03184400	      0.60356889	      0.91463289	     -0.91226351	      3.83860381
     13.32000000	      4.27086470	      3.35503077	     -3.47583098	     -0.83741450	      1.09376297	      0.89016445	    -25.92767047	      1.36092836	      1.27852298	    -13.71286551	     11.99868464	     19.35235200	    -63.80410135	     35.83175701	     53.53548843	      0.00000000	     34.32000000	     30.42326055	     -1.16071730	     -0.04006082	     -0.23134334	      0.41065553	     -0.42922441	     -1.81593301	      4.42341928	     -0.50496866	     -2.08103599	      5.15280987	     -0.50496866	     -2.86307725	      5.15280987	     -0.37872649	     -2.86307725	      5.15280987	     -0.25248433	     -2.59798187	      2.21170964	      0.02362941	     -0.03708481	      0.60380913	      0.75274894	     -1.06240148	      3.84013165
     13.33000000	      4.25734004	      3.38364969	     -3.48226011	     -0.83748513	      1.09375959	      0.89015831	    -25.94421122	      1.34406495	      1.25553178	    -13.73014241	     11.99845533	     19.36820240	    -63.68958774	     35.84792611	     52.05337098	      0.00000000	     34.32000000	     30.42326055	     -1.16071730	     -0.04201336	     -0.23258088	      0.41024857	     -0.45014460	     -1.82564707	      4.41903560	     -0.52958058	     -2.09216818	      5.14770336	     -0.52958058	     -2.87839285	      5.14770336	     -0.39718544	     -2.87839285	      5.14770336	     -0.26479029	     -2.61187938	      2.20951780	      0.02565500	     -0.03630431	      0.60351499	      0.81727681	     -1.04004189	      3.83826099
     13.34000000	      4.24316819	      3.34856522	     -3.49478916	     -0.83753431	      1.09374180	      0.89019407	    -25.89655544	      1.41448486	      1.31344429	    -13.65962319	     11.99863739	     19.31870405	    -63.40507933	     35.77212923	     51.79771679	      0.00000000	     34.32000000	     30.42326055	     -1.16071730	     -0.04125714	     -0.23401465	      0.41038480	     -0.44204225	     -1.83690148	      4.42050308	     -0.52004843	     -2.10506559	      5.14941281	     -0.52004843	     -2.89613703	      5.14941281	     -0.39003633	     -2.89613703	      5.14941281	     -0.26002422	     -2.62798061	      2.21025154	      0.02512714	     -0.03363466	      0.60376622	      0.80046115	     -0.96356212	      3.83985877
     13.35000000	      4.22583024	      3.36351145	     -3.51150504	     -0.83765519	      1.09368565	      0.89020148	    -25.90540148	      1.34664990	      1.32407977	    -13.72465980	     11.99924762	     19.33815506	    -63.57247404	     35.88061637	     51.49974756	      0.00000000	     34.32000000	     30.42326055	     -1.16071730	     -0.04151144	     -0.23215695	      0.40982350	     -0.44476685	     -1.82231940	      4.41445699	     -0.52325383	     -2.08835472	      5.14236976	     -0.52325383	     -2.87314631	      5.14236976	     -0.39244037	     -2.87314631	      5.14236976	     -0.26162692	     -2.60711862	      2.20722849	      0.02394648	     -0.03620283	      0.60373350	      0.76284967	     -1.03713477	      3.83965070
     13.36000000	      4.25459866	      3.39522848	     -3.52305458	     -0.83765980	      1.09368900	      0.88995286	    -26.08247879	      1.46593113	      0.96244246	    -13.62654212	     11.99854657	     19.44851119	    -63.04369730	     35.48182549	     49.77456334	      0.00000000	     34.32000000	     30.42326055	     -1.16071730	     -0.04132146	     -0.23759130	      0.40942059	     -0.44273133	     -1.86497648	      4.41011698	     -0.52085911	     -2.13723918	      5.13731412	     -0.52085911	     -2.94040127	      5.13731412	     -0.39064433	     -2.94040127	      5.13731412	     -0.26042956	     -2.66814637	      2.20505849	      0.02608693	     -0.03118507	      0.60295111	      0.83103660	     -0.89338651	      3.83467480
     13.37000000	      4.18759726	      3.35018749	     -3.51741837	     -0.83760359	      1.09366722	      0.89030141	    -25.91486461	      1.30719172	      1.32173057	    -13.76253754	     11.99871344	     19.35300007	    -63.50800603	     35.90637336	     51.29473406	      0.00000000	     34.32000000	     30.42326055	     -1.16071730	     -0.04183555	     -0.23276444	      0.40922707	     -0.44823947	     -1.82708797	      4.40803241	     -0.52733926	     -2.09381943	      5.13488581	     -0.52733926	     -2.88066464	      5.13488581	     -0.39550445	     -2.88066464	      5.13488581	     -0.26366963	     -2.61394082	      2.20401620	      0.02488970	     -0.03662943	      0.60283860	      0.79289703	     -1.04935577	      3.83395926
     13.38000000	      4.18177882	      3.34762884	     -3.53440337	     -0.83767852	      1.09365059	      0.89029529	    -25.96735321	      1.34988534	      1.21184159	    -13.72656061	     11.99846133	     19.38427228	    -63.26028604	     35.69818769	     50.33260061	      0.00000000	     34.32000000	     30.42326055	     -1.16071730	     -0.04072657	     -0.23456521	      0.40847803	     -0.43635753	     -1.84122312	      4.39996411	     -0.51336054	     -2.11001813	      5.12548711	     -0.51336054	     -2.90295071	      5.12548711	     -0.38502040	     -2.90295071	      5.12548711	     -0.25668027	     -2.63416340	      2.19998205	      0.02511555	     -0.03475204	      0.60297123	      0.80009191	     -0.99557263	      3.83480276
     13.39000000	      4.14443923	      3.33541179	     -3.53939700	     -0.83769741	      1.09363936	      0.89042721	    -25.88971698	      1.29332237	      1.37178113	    -13.77357066	     11.99875995	     19.33678262	    -63.45842715	     36.00501662	     50.65373801	      0.00000000	     34.32000000	     30.42326055	     -1.16071730	     -0.04044100	     -0.23305880	      0.40863813	     -0.43329782	     -1.82939851	      4.40168859	     -0.50976089	     -2.09646729	      5.12749595	     -0.50976089	     -2.88430754	      5.12749595	     -0.38232067	     -2.88430754	      5.12749595	     -0.25488045	     -2.61724642	      2.20084430	      0.02435169	     -0.03589106	      0.60216905	      0.77575817	     -1.02820320	      3.82970104
